<?xml version="1.0" encoding="utf-8"?>
<!-- Generator: Adobe Illustrator 16.0.4, SVG Export Plug-In . SVG Version: 6.00 Build 0)  -->
<!DOCTYPE svg PUBLIC "-//W3C//DTD SVG 1.1//EN" "http://www.w3.org/Graphics/SVG/1.1/DTD/svg11.dtd">
<svg version="1.1" id="Layer_1" xmlns:sketch="http://www.bohemiancoding.com/sketch/ns"
	 xmlns="http://www.w3.org/2000/svg" xmlns:xlink="http://www.w3.org/1999/xlink" x="0px" y="0px" width="298px" height="420px"
	 viewBox="0 0 298 420" enable-background="new 0 0 298 420" xml:space="preserve">
<title>Slice 1</title>
<description>Created with Sketch (http://www.bohemiancoding.com/sketch)</description>
<polygon fill="#E44D26" points="26.7,385 -0.29,82.27 296.29,82.27 269.271,384.953 147.818,418.624 "/>
<polygon fill="#F16529" points="148,392.888 246.14,365.68 269.229,107.022 148,107.022 "/>
<polygon fill="#EBEBEB" points="148,219.302 98.869,219.302 95.476,181.28 148,181.28 148,144.151 147.872,144.151 54.899,144.151 
	55.787,154.112 64.913,256.43 148,256.43 "/>
<polygon fill="#EBEBEB" points="148,315.729 147.837,315.771 106.487,304.605 103.843,274.995 83.75,274.995 66.572,274.995 
	71.773,333.292 147.829,354.404 148,354.358 "/>
<path d="M27.304,0h18.868v18.642h17.26V0h18.87v56.452H63.433V37.549h-17.26v18.903H27.305L27.304,0L27.304,0z"/>
<path d="M107.114,18.72H90.503V0h52.099v18.72h-16.619v37.732h-18.869L107.114,18.72L107.114,18.72z"/>
<path d="M150.87,0h19.676l12.102,19.835L194.738,0h19.682v56.452h-18.791v-27.98l-12.981,20.071h-0.325l-12.989-20.071v27.98H150.87
	V0z"/>
<path d="M223.81,0h18.874v37.792h26.535v18.66H223.81V0z"/>
<polygon fill="#FFFFFF" points="147.872,219.302 147.872,256.43 193.591,256.43 189.281,304.583 147.872,315.759 147.872,354.388 
	223.987,333.292 224.546,327.019 233.271,229.271 234.176,219.302 224.172,219.302 "/>
<polygon fill="#FFFFFF" points="147.872,144.151 147.872,167.212 147.872,181.189 147.872,181.28 237.437,181.28 237.437,181.28 
	237.555,181.28 238.3,172.936 239.991,154.112 240.88,144.151 "/>
</svg>
