<?xml version="1.0" encoding="utf-8"?>
<!-- Generator: Adobe Illustrator 16.0.4, SVG Export Plug-In . SVG Version: 6.00 Build 0)  -->
<!DOCTYPE svg PUBLIC "-//W3C//DTD SVG 1.1//EN" "http://www.w3.org/Graphics/SVG/1.1/DTD/svg11.dtd">
<svg version="1.1" id="Layer_1" xmlns="http://www.w3.org/2000/svg" xmlns:xlink="http://www.w3.org/1999/xlink" x="0px" y="0px"
	 width="140px" height="140px" viewBox="0 0 140 140" enable-background="new 0 0 140 140" xml:space="preserve">
<g>
	<g>
		<g id="g14">
			<g>
				<defs>
					<path id="SVGID_1_" d="M58.057,3641.63l-6.306,2.089c0,0,0.806,31.904-10.7,34.135c-7.589,8.793,1.166,375.517,28.729,1.251
						c0,0-9.434-4.733-11.219-12.783S58.057,3641.63,58.057,3641.63z"/>
				</defs>
				<clipPath id="SVGID_2_">
					<use xlink:href="#SVGID_1_"  overflow="visible"/>
				</clipPath>
				<g id="g16" clip-path="url(#SVGID_2_)">
					
						<linearGradient id="path28_1_" gradientUnits="userSpaceOnUse" x1="35.6074" y1="3260.9761" x2="35.6651" y2="3260.9761" gradientTransform="matrix(27.5186 -9.2844 -8.3752 -24.6958 26366.8145 84613.2031)">
						<stop  offset="0" style="stop-color:#929669"/>
						<stop  offset="1" style="stop-color:#FDFCF0"/>
					</linearGradient>
					<path id="path28" inkscape:connector-curvature="0" fill="url(#path28_1_)" d="M58.057,3641.63l-6.306,2.089
						c0,0,0.806,31.904-10.7,34.135c-7.589,8.793,1.166,375.517,28.729,1.251c0,0-9.434-4.733-11.219-12.783
						S58.057,3641.63,58.057,3641.63"/>
				</g>
			</g>
		</g>
		<g id="g30">
			<g>
				<defs>
					<path id="SVGID_3_" d="M61.454,3672.437c0,0,54.773,36.071,41.94,110.995c-12.358,54.431-41.533,72.324-44.669,79.158
						c-3.449,4.833-6.926,13.396-6.926,13.396l2.328-151.651C54.127,3724.335,49.308,3678.02,61.454,3672.437z"/>
				</defs>
				<clipPath id="SVGID_4_">
					<use xlink:href="#SVGID_3_"  overflow="visible"/>
				</clipPath>
				<g id="g32" clip-path="url(#SVGID_4_)">
					
						<linearGradient id="path44_1_" gradientUnits="userSpaceOnUse" x1="-4.2138" y1="3307.646" x2="-4.1561" y2="3307.646" gradientTransform="matrix(19.2702 -74.8072 -80.4896 -12.9047 266405.5312 46050.2266)">
						<stop  offset="0" style="stop-color:#44AA3A"/>
						<stop  offset="1" style="stop-color:#3D9439"/>
					</linearGradient>
					<path id="path44" inkscape:connector-curvature="0" fill="url(#path44_1_)" d="M61.454,3672.437
						c0,0,54.773,36.071,41.94,110.995c-12.358,54.431-41.533,72.324-44.669,79.158c-3.449,4.833-6.926,13.396-6.926,13.396
						l2.328-151.651C54.127,3724.335,49.308,3678.02,61.454,3672.437"/>
				</g>
			</g>
		</g>
		<g id="g10" transform="matrix(1.25,0,0,-1.25,0,691.5375)">
			<g id="g12" transform="scale(0.132379,0.132379)">
				<defs>
					<rect id="SVGID_5_" x="353.028" y="3736.17" width="140" height="39.883"/>
				</defs>
				<clipPath id="SVGID_6_">
					<use xlink:href="#SVGID_5_"  overflow="visible"/>
				</clipPath>
				<g id="g46" clip-path="url(#SVGID_6_)">
					<g id="g48">
						<defs>
							<path id="SVGID_7_" d="M48.547,3670.418c0,0-51.379,35.055-48.423,96.896c2.957,61.843,39.243,92.248,46.313,97.766
								c4.568,4.869,4.757,6.745,5.111,11.555c3.202-6.881,2.67-102.759,3.01-113.966
								C55.874,3719.048,52.141,3678.657,48.547,3670.418z"/>
						</defs>
						<clipPath id="SVGID_8_">
							<use xlink:href="#SVGID_7_"  overflow="visible"/>
						</clipPath>
						<g id="g54" clip-path="url(#SVGID_8_)">
							
								<linearGradient id="path66_1_" gradientUnits="userSpaceOnUse" x1="55.5903" y1="3296.1733" x2="55.648" y2="3296.1733" gradientTransform="matrix(33.7272 7.6631 10.5391 -31.491 -36648.7266 107128.0859)">
								<stop  offset="0" style="stop-color:#40A73C"/>
								<stop  offset="1" style="stop-color:#5EBC45"/>
							</linearGradient>
							<path id="path66" inkscape:connector-curvature="0" fill="url(#path66_1_)" d="M48.505,3670.371v0.059H48.39v0.059h-0.056
								v0.059h-0.059v0.059H48.16v0.059h-0.059v0.059h-0.115v0.047H47.93v0.059h-0.059v0.059h-0.115v0.059H47.7v0.059h-0.059v0.059
								h-0.115v0.059h-0.059v0.059h-0.056v0.059h-0.115v0.047h-0.059v0.059h-0.115v0.059h-0.056v0.059h-0.059v0.059h-0.059v0.059
								h-0.115v0.059h-0.056v0.059h-0.059v0.047h-0.115v0.059h-0.056v0.059h-0.059v0.059h-0.115v0.059h-0.059v0.059h-0.056v0.059
								h-0.115v0.059h-0.059v0.059h-0.056v0.047h-0.059v0.059h-0.115v0.059h-0.056v0.059h-0.059v0.059h-0.115v0.059h-0.059v0.059
								h-0.056v0.059h-0.059v0.059h-0.115v0.047h-0.056v0.059h-0.059v0.059h-0.059v0.059h-0.115v0.059h-0.056v0.059h-0.059v0.059
								h-0.056v0.059h-0.115v0.059h-0.059v0.047h-0.056v0.059h-0.059v0.059h-0.115v0.059H44.41v0.059h-0.056v0.059h-0.059v0.059
								h-0.056v0.059h-0.115v0.059h-0.059v0.047h-0.056v0.059h-0.059v0.059h-0.115v0.059h-0.059v0.059h-0.056v0.059H43.66v0.059
								h-0.056v0.059h-0.115v0.047H43.43v0.059h-0.056v0.059h-0.059v0.059h-0.056v0.059h-0.118v0.059h-0.056v0.059h-0.059v0.059
								H42.97v0.059h-0.059v0.047h-0.056v0.059H42.74v0.059H42.68v0.059h-0.059v0.059h-0.056v0.059h-0.059v0.059h-0.115v0.059
								h-0.056v0.059h-0.059v0.047H42.22v0.059h-0.059v0.059h-0.056v0.059h-0.059v0.059h-0.115v0.059h-0.059v0.059h-0.056v0.059
								h-0.059v0.059h-0.056v0.047h-0.059v0.059h-0.115v0.059h-0.056v0.059h-0.059v0.059h-0.059v0.059h-0.056v0.059h-0.059v0.059
								h-0.056v0.059h-0.115v0.047h-0.059v0.059h-0.056v0.059h-0.059v0.059h-0.056v0.059h-0.059v0.059h-0.059v0.059h-0.056v0.059
								h-0.115v0.059h-0.059v0.047h-0.056v0.059h-0.059v0.059h-0.056v0.059h-0.059v0.059h-0.056v0.059h-0.059v0.059h-0.115v0.059
								h-0.059v0.047h-0.056v0.059h-0.059v0.059h-0.056v0.059h-0.059v0.059h-0.056v0.059h-0.059v0.059h-0.056v0.059h-0.059v0.059
								h-0.115v0.047h-0.059v0.059h-0.056v0.059h-0.059v0.059h-0.056v0.059h-0.059v0.059h-0.056v0.059h-0.059v0.059h-0.056v0.059
								h-0.059v0.047h-0.059v0.059H38.7v0.059h-0.056v0.059h-0.059v0.059h-0.056v0.059H38.47v0.059h-0.056v0.059h-0.059v0.059
								h-0.056v0.047H38.24v0.059h-0.059v0.059h-0.056v0.059h-0.059v0.059h-0.056v0.059H37.95v0.059h-0.056v0.059h-0.115v0.047
								H37.72v0.059h-0.056v0.059h-0.059v0.059h-0.059v0.059H37.49v0.059h-0.059v0.059h-0.056v0.059h-0.059v0.059H37.26v0.047
								h-0.059v0.059h-0.056v0.059h-0.059v0.059H37.03v0.059h-0.059v0.059h-0.059v0.059h-0.056v0.059h-0.059v0.059h-0.056v0.047
								h-0.059v0.059h-0.056v0.059h-0.059v0.059H36.51v0.059h-0.059v0.059h-0.056v0.059h-0.118v0.059h-0.056v0.059h-0.059v0.047
								h-0.056v0.059h-0.059v0.059h-0.056v0.059h-0.059v0.059h-0.056v0.059h-0.059v0.059h-0.056v0.059h-0.059v0.059h-0.059v0.047
								h-0.056v0.059h-0.059v0.059h-0.056v0.059h-0.059v0.059h-0.056v0.059h-0.059v0.059h-0.056v0.059h-0.059v0.059h-0.056v0.047
								h-0.059v0.059h-0.059v0.059h-0.056v0.059h-0.059v0.059h-0.056v0.059h-0.059v0.059h-0.056v0.059h-0.059v0.047h-0.056v0.059
								h-0.059v0.059h-0.059v0.059h-0.056v0.059h-0.059v0.059h-0.056v0.059h-0.059v0.059h-0.056v0.059h-0.059v0.047h-0.056V3683
								h-0.059v0.118h-0.056v0.059h-0.059v0.059h-0.056v0.059h-0.059v0.059H33.74v0.059h-0.056v0.047h-0.059v0.059h-0.056v0.059
								h-0.059v0.059h-0.056v0.059h-0.059v0.059h-0.056v0.059h-0.059v0.059H33.22v0.059h-0.056v0.047h-0.059v0.059h-0.056v0.059
								H32.99v0.059h-0.056v0.059h-0.059v0.059h-0.056v0.059H32.76v0.059h-0.056v0.059h-0.059v0.047h-0.059v0.118H32.53v0.059
								h-0.059v0.059h-0.056v0.059h-0.059v0.059H32.3v0.059h-0.059v0.059h-0.056v0.047h-0.059v0.059h-0.056v0.059H32.01v0.059
								h-0.059v0.059h-0.056v0.059h-0.059v0.059H31.78v0.106h-0.059v0.059h-0.056v0.059h-0.059v0.059H31.55v0.059h-0.059v0.059
								h-0.056v0.059h-0.059v0.059h-0.059v0.059h-0.056v0.047h-0.059v0.059h-0.056v0.059h-0.059v0.118h-0.056v0.059h-0.059v0.059
								h-0.056v0.059h-0.059v0.059h-0.056v0.047h-0.059v0.059h-0.059v0.059h-0.056v0.059h-0.059v0.059h-0.056v0.118h-0.059v0.059
								h-0.056v0.059h-0.059v0.047h-0.056v0.059h-0.059v0.059h-0.056v0.059h-0.059v0.059h-0.059v0.059h-0.056v0.118h-0.059v0.047
								h-0.056v0.059h-0.059v0.059h-0.056v0.059h-0.059v0.059h-0.056v0.059h-0.059v0.059h-0.056v0.118h-0.059v0.047h-0.059v0.059
								h-0.056v0.059h-0.059v0.059h-0.056v0.059h-0.059v0.059h-0.056v0.118h-0.059v0.059h-0.056v0.047h-0.059v0.059h-0.056v0.059
								h-0.059v0.059h-0.059v0.059h-0.056v0.118h-0.059v0.059h-0.056v0.059h-0.059v0.047h-0.056v0.059h-0.059v0.059h-0.056v0.118
								h-0.059v0.059h-0.056v0.059h-0.059v0.059h-0.059v0.059h-0.056v0.047H28.03v0.118h-0.056v0.059h-0.059v0.059h-0.056v0.059
								H27.8v0.059h-0.056v0.059h-0.059v0.106h-0.059v0.059h-0.056v0.059H27.51v0.059h-0.056v0.059h-0.059v0.118h-0.056v0.059H27.28
								v0.047h-0.056v0.059h-0.059v0.059h-0.056v0.118H27.05v0.059h-0.056v0.059h-0.059v0.059h-0.059v0.059H26.82v0.106h-0.059
								v0.059h-0.056v0.059h-0.059v0.059H26.59v0.059h-0.059v0.118h-0.056v0.059h-0.059v0.047H26.36v0.059h-0.059v0.118h-0.059
								v0.059h-0.056v0.059h-0.059v0.059H26.07v0.059h-0.059v0.106h-0.056v0.059h-0.059v0.059H25.84v0.059h-0.059v0.118h-0.056
								v0.059h-0.059v0.059h-0.059v0.047h-0.056v0.059h-0.059v0.118h-0.056v0.059h-0.059v0.059h-0.056v0.118h-0.059v0.059h-0.056
								v0.047h-0.059v0.059h-0.059v0.118h-0.056v0.059h-0.059v0.059h-0.056v0.059h-0.059v0.118h-0.056v0.047h-0.059v0.059h-0.056
								v0.059h-0.059v0.118h-0.056v0.059h-0.059v0.059h-0.059v0.059h-0.056v0.106h-0.059v0.059h-0.056v0.059h-0.059v0.118h-0.056
								v0.059h-0.059v0.059h-0.056v0.118h-0.059v0.047h-0.056v0.059h-0.059v0.059h-0.056v0.118h-0.059v0.059h-0.059v0.059h-0.056
								v0.118h-0.059v0.047h-0.056v0.059h-0.059v0.118h-0.056v0.059h-0.059v0.059h-0.056v0.059h-0.059v0.106h-0.059v0.059h-0.056
								v0.059h-0.059v0.118h-0.056v0.059h-0.059v0.059h-0.056v0.118h-0.059v0.047h-0.056v0.118h-0.059v0.059h-0.056v0.059h-0.059
								v0.118H22.55v0.059h-0.056v0.059h-0.059v0.106h-0.056v0.059H22.32v0.059h-0.056v0.118h-0.059v0.059h-0.056v0.059H22.09v0.106
								h-0.056v0.059h-0.059v0.059h-0.059v0.118H21.86v0.059h-0.059v0.118h-0.056v0.059h-0.059v0.047h-0.056v0.118H21.57v0.059
								h-0.056v0.059h-0.059v0.118h-0.056v0.059H21.34v0.106h-0.059v0.059h-0.056v0.059h-0.059v0.118H21.11v0.059h-0.059v0.118
								h-0.056v0.047h-0.059v0.059H20.88v0.118h-0.059v0.059h-0.056v0.118h-0.059v0.059h-0.059v0.059h-0.056v0.106h-0.059v0.059
								h-0.056v0.118h-0.059v0.059h-0.056v0.118h-0.059v0.059h-0.056v0.106h-0.059v0.059H20.13v0.059h-0.059v0.118h-0.059v0.059
								h-0.056v0.118h-0.059v0.047h-0.056v0.118h-0.059v0.059h-0.056v0.059h-0.059v0.118h-0.056v0.059h-0.059v0.106h-0.056v0.059
								h-0.059v0.118h-0.059V3701h-0.056v0.118h-0.059v0.059h-0.056v0.106h-0.059v0.059h-0.056v0.118h-0.059v0.059h-0.056v0.118
								h-0.059v0.059h-0.056v0.106h-0.059v0.059h-0.059v0.118h-0.056v0.059h-0.059v0.118h-0.056v0.059h-0.059v0.106h-0.056v0.059
								h-0.059v0.118h-0.056v0.059h-0.059v0.118h-0.056v0.059h-0.059v0.106h-0.059v0.059h-0.056v0.118h-0.059v0.118h-0.056v0.059
								h-0.059v0.106h-0.056v0.059h-0.059v0.118h-0.056v0.059h-0.059v0.118h-0.056v0.059h-0.059v0.106h-0.059v0.059h-0.056v0.118
								H17.36v0.118h-0.056v0.059h-0.059v0.106h-0.056v0.059h-0.059v0.118h-0.056v0.118h-0.059v0.059h-0.056v0.118h-0.059v0.047
								H16.84v0.118h-0.056v0.118h-0.059v0.059h-0.056v0.118H16.61v0.059h-0.056v0.106h-0.059v0.118h-0.056v0.059H16.38v0.118
								h-0.056v0.059h-0.059v0.106h-0.059v0.118H16.15v0.059h-0.059v0.118h-0.056v0.118h-0.059v0.047H15.92v0.118h-0.059v0.118
								h-0.056v0.059h-0.059v0.118h-0.059v0.106H15.63v0.059h-0.059v0.118h-0.056v0.118h-0.059v0.059H15.4v0.118h-0.059v0.106
								h-0.056v0.059h-0.059v0.118H15.17v0.118h-0.059v0.059h-0.059v0.106h-0.056v0.118h-0.059v0.118h-0.056v0.059h-0.059v0.118
								h-0.056v0.106h-0.059v0.118h-0.056v0.059h-0.059v0.118h-0.056v0.118h-0.059v0.106h-0.056v0.059h-0.059v0.118h-0.059v0.118
								h-0.056v0.059h-0.059v0.106h-0.056v0.118h-0.059v0.118h-0.056v0.118h-0.059v0.059h-0.056v0.106h-0.059v0.118h-0.056v0.118
								h-0.059v0.118h-0.059v0.059h-0.056v0.106h-0.059v0.118h-0.056v0.118h-0.059v0.118h-0.056v0.059h-0.059v0.106h-0.056v0.118
								h-0.059v0.118h-0.059v0.118h-0.056v0.106h-0.059v0.059h-0.056v0.118h-0.059v0.118h-0.056v0.118h-0.059v0.118h-0.056v0.106
								h-0.059v0.118h-0.056v0.118h-0.059v0.118h-0.059v0.047h-0.056v0.118h-0.059v0.118h-0.056v0.118h-0.059v0.118h-0.056v0.106
								h-0.059v0.118h-0.056v0.118h-0.059v0.118h-0.056v0.106h-0.059v0.118H11.88v0.059h-0.056v0.118h-0.059v0.118h-0.056v0.106
								H11.65v0.118h-0.056v0.118h-0.059v0.118h-0.056v0.106H11.42v0.118h-0.056v0.118h-0.059v0.118h-0.059v0.118h-0.056v0.106
								H11.13v0.118h-0.056v0.118h-0.059v0.118h-0.056v0.106H10.9v0.118h-0.056v0.177h-0.059v0.118h-0.056v0.106H10.67v0.118h-0.059
								v0.118h-0.056v0.118h-0.059v0.118H10.44v0.106h-0.059v0.118h-0.056v0.118h-0.059v0.118H10.21v0.165h-0.059v0.118h-0.056
								v0.118h-0.059v0.118H9.977v0.106H9.921v0.118H9.862v0.118H9.806v0.177H9.747v0.106H9.69v0.118H9.631v0.118H9.575v0.118H9.516
								v0.165H9.46v0.118H9.401v0.118H9.342v0.118H9.286v0.106H9.227v0.177H9.171v0.118H9.112v0.118H9.056v0.106H8.997v0.177H8.941
								v0.118H8.882v0.118H8.826v0.165H8.767v0.118H8.708v0.118H8.652v0.165H8.593v0.118H8.537v0.118H8.478v0.177H8.422v0.106H8.363
								v0.118H8.307v0.177H8.248v0.118H8.191v0.106H8.132v0.177H8.073v0.118H8.017v0.177H7.958v0.106H7.902v0.118H7.843v0.177H7.787
								v0.106H7.728v0.177H7.672v0.118H7.613v0.177H7.557v0.106H7.498v0.177H7.439v0.118H7.383v0.165H7.324v0.118H7.268v0.177H7.209
								v0.118H7.153v0.165H7.094v0.177H7.038v0.118H6.979v0.165H6.923v0.177H6.864v0.118H6.805v0.165H6.748v0.118H6.689v0.177H6.633
								v0.177H6.574v0.106H6.518v0.177H6.459v0.177H6.403v0.106H6.344v0.177H6.288v0.177H6.229v0.165H6.17v0.177H6.114v0.118H6.055
								v0.177H5.999v0.165H5.94v0.177H5.884v0.165H5.825v0.177H5.769v0.118H5.71v0.177H5.654v0.165H5.595v0.177H5.536v0.177H5.48
								v0.165H5.421v0.177H5.365v0.177H5.306v0.165H5.249v0.177H5.19v0.177H5.134v0.165H5.075v0.177H5.016v0.165H4.96v0.177H4.901
								v0.177H4.845v0.224H4.786v0.177H4.73v0.177H4.671v0.165H4.615v0.236H4.556v0.177H4.5v0.165H4.441v0.236H4.385v0.165H4.326
								v0.177H4.267v0.177H4.211v0.224H4.152v0.177H4.096v0.224H4.037v0.177H3.981v0.236H3.922v0.165H3.866v0.236H3.807v0.224H3.748
								v0.177H3.691v0.236H3.632v0.165H3.576v0.236H3.517v0.224H3.461v0.177H3.402v0.236H3.346v0.224H3.287v0.236H3.231v0.224H3.172
								v0.236H3.113v0.224H3.057v0.236H2.998v0.224H2.942v0.236H2.883v0.236H2.827v0.224H2.768v0.283H2.712v0.236H2.653v0.236H2.597
								v0.283H2.538v0.236H2.479v0.283H2.423v0.236H2.364v0.224H2.308v0.295H2.249v0.283H2.192v0.283H2.133v0.295H2.077v0.283H2.018
								v0.295H1.962v0.224H1.903v0.295H1.844v0.283H1.788v0.342H1.729v0.295H1.673v0.342H1.614v0.342H1.558v0.295H1.499v0.342H1.443
								v0.354H1.384v0.283H1.328v0.342H1.269v0.413H1.21v0.401H1.154v0.342H1.095v0.401H1.039v0.401H0.98v0.354H0.924v0.46H0.865
								v0.46H0.809v0.46H0.75v0.46H0.693v0.463H0.634v0.46H0.575v0.637H0.519v0.573H0.46v0.578H0.404v0.578H0.345v0.69H0.289v0.809
								H0.23v0.808H0.174v0.862H0.115v1.269H0.059v1.269H0v6.751h0.059v1.67h0.056v1.039h0.059v0.868H0.23v0.862h0.059v0.867h0.056
								v0.921h0.059v0.867H0.46v0.75h0.059v0.578h0.056v0.573h0.059v0.578h0.059v0.578H0.75v0.579h0.059v0.572h0.056v0.578h0.059
								v0.578H0.98v0.519h0.059v0.46h0.056v0.46h0.059v0.407H1.21v0.401h0.059v0.46h0.059V3781h0.056v0.401h0.059v0.46h0.056v0.407
								h0.059v0.401h0.056v0.46h0.059v0.407h0.056v0.401h0.059v0.348h0.056v0.342h0.059v0.348h0.059v0.289h0.056v0.342h0.059v0.348
								h0.056v0.348h0.059v0.342h0.056v0.289h0.059v0.348h0.056v0.342h0.059v0.348h0.056v0.348h0.059v0.289h0.059v0.342h0.056v0.289
								h0.059v0.289h0.056v0.289h0.059v0.289h0.056v0.23h0.059v0.289h0.056v0.289h0.059v0.283h0.056v0.289h0.059v0.23h0.059v0.289
								h0.056v0.289h0.059v0.289h0.056v0.289h0.059v0.23h0.056v0.289h0.059v0.289h0.056v0.283h0.059v0.236h0.056v0.23h0.059v0.23
								h0.059v0.23h0.056v0.23h0.059v0.23h0.056v0.23h0.059v0.289h0.056v0.23h0.059v0.23h0.056v0.23h0.059v0.23h0.059v0.23h0.056
								v0.23H4.5v0.236h0.056v0.23h0.059v0.23h0.056v0.23H4.73v0.23h0.056v0.23h0.059v0.23h0.056v0.23H4.96v0.23h0.056v0.177h0.059
								v0.23h0.059v0.171H5.19v0.23h0.059v0.171h0.056v0.236h0.059v0.171h0.056v0.23H5.48v0.171h0.056v0.23h0.059v0.23h0.059v0.177
								H5.71v0.23h0.059v0.171h0.056v0.23h0.059v0.177H5.94v0.23h0.059v0.171h0.056v0.23h0.059v0.171H6.17v0.236h0.059v0.171h0.059
								v0.171h0.056v0.177h0.059v0.171h0.056v0.171h0.059v0.23h0.056v0.177h0.059v0.171h0.056v0.171h0.059v0.171h0.056v0.177h0.059
								v0.171h0.059v0.23h0.056v0.177h0.059v0.171h0.056v0.171h0.059v0.177h0.056v0.171h0.059v0.171h0.056v0.171h0.059v0.236h0.056
								v0.171h0.059v0.171h0.059v0.177h0.056v0.171h0.059v0.171h0.056v0.118h0.059v0.171h0.056v0.171h0.059v0.177h0.056v0.171h0.059
								v0.118h0.056v0.171h0.059v0.171h0.059v0.171h0.056v0.177h0.059v0.171h0.056v0.118h0.059v0.171h0.056v0.171h0.059v0.177h0.056
								v0.171h0.059v0.112h0.056v0.177h0.059v0.171h0.059v0.171h0.056v0.177h0.059v0.112h0.056v0.177h0.059v0.171h0.056v0.171h0.059
								v0.118h0.056v0.171h0.059v0.118h0.056v0.171h0.059v0.118H9.46v0.171h0.056v0.112h0.059v0.177h0.056v0.171H9.69v0.118h0.056
								v0.171h0.059v0.112h0.056v0.177h0.059v0.112h0.056v0.177h0.059v0.112h0.059v0.177h0.056v0.112h0.059v0.171h0.056v0.118h0.059
								v0.171h0.056v0.177h0.059v0.112h0.056v0.171h0.059v0.118h0.056v0.171h0.059v0.118h0.059v0.171h0.056v0.118h0.059v0.112H10.9
								v0.177h0.059v0.112h0.056v0.118h0.059v0.171h0.056v0.118h0.059v0.112h0.056v0.118h0.059v0.171h0.059v0.112h0.056v0.118h0.059
								v0.171h0.056v0.118h0.059v0.112h0.056v0.177h0.059v0.112h0.056v0.118h0.059v0.171h0.056v0.118h0.059v0.112h0.059v0.177h0.056
								v0.112h0.059v0.118h0.056v0.171h0.059v0.118h0.056v0.112h0.059v0.171h0.056v0.118h0.059v0.118h0.056v0.112h0.059v0.118h0.059
								v0.112h0.056v0.118h0.059v0.171h0.056v0.112h0.059v0.118h0.056v0.118h0.059v0.112h0.056v0.118h0.059v0.112h0.056v0.118h0.059
								v0.171h0.059v0.118h0.056v0.112h0.059v0.118h0.056v0.112h0.059v0.118h0.056v0.112h0.059v0.177h0.056v0.112h0.059v0.118h0.059
								v0.112h0.056v0.118h0.059v0.112h0.056v0.118h0.059v0.118h0.056v0.171h0.059v0.112h0.056v0.118h0.059v0.112h0.056v0.118h0.059
								v0.118h0.059v0.112h0.056v0.118h0.059v0.112h0.056v0.059h0.059v0.118h0.056v0.112h0.059v0.118h0.056v0.112h0.059v0.118h0.056
								v0.112h0.059v0.118h0.056v0.112h0.059v0.118h0.059v0.112h0.056v0.118h0.059v0.118h0.056v0.112H15.4v0.118h0.056v0.112h0.059
								v0.118h0.056v0.112h0.059v0.118h0.056v0.112h0.059v0.118h0.059v0.112h0.056v0.118h0.059v0.118h0.056v0.112h0.059v0.118h0.056
								v0.053h0.059v0.118h0.056v0.118h0.059v0.112h0.059v0.118h0.056v0.112h0.059v0.059h0.056v0.118h0.059v0.112h0.056v0.118h0.059
								v0.112h0.056v0.118h0.059v0.053h0.056v0.118h0.059v0.112h0.059v0.118h0.056v0.118h0.059v0.053h0.056v0.118h0.059v0.118h0.056
								v0.112h0.059v0.118h0.056v0.112h0.059v0.059h0.056v0.112h0.059v0.118h0.059v0.118h0.056v0.112h0.059v0.118h0.056v0.053h0.059
								v0.118h0.056v0.112h0.059v0.118h0.056v0.059h0.059v0.112h0.056v0.118h0.059v0.112h0.059v0.059h0.056v0.118h0.059v0.112h0.056
								v0.059h0.059v0.118h0.056v0.112h0.059v0.118h0.056v0.053h0.059v0.118h0.056v0.118h0.059v0.053h0.059v0.118h0.056v0.112h0.059
								v0.059h0.056v0.118h0.059v0.112h0.056v0.118h0.059v0.059h0.056v0.112h0.059v0.118h0.056v0.053h0.059v0.118h0.059v0.118h0.056
								v0.112h0.059v0.059h0.056v0.112h0.059v0.118h0.056v0.059h0.059v0.112h0.056v0.118h0.059v0.059h0.056v0.112h0.059v0.059h0.059
								v0.112h0.056v0.118h0.059v0.059h0.056v0.112h0.059v0.059h0.056v0.118h0.059v0.112h0.056v0.059h0.059v0.118h0.056v0.053h0.059
								v0.118h0.059v0.112h0.056v0.059h0.059v0.118h0.056v0.059h0.059v0.112h0.056v0.118h0.059v0.053h0.056v0.118h0.059v0.059h0.056
								v0.112h0.059v0.118h0.059v0.059h0.056V3837h0.059v0.059h0.056v0.112h0.059v0.118h0.056v0.059h0.059v0.112h0.056v0.059h0.059
								v0.118h0.056v0.053h0.059v0.118h0.059v0.059h0.056v0.112h0.059v0.059h0.056v0.118h0.059v0.053h0.056v0.118h0.059v0.059h0.056
								v0.112h0.059v0.059h0.056v0.118h0.059v0.053h0.059v0.118h0.056v0.059h0.059v0.112h0.056v0.059h0.059v0.118h0.056v0.053h0.059
								v0.118h0.056v0.059h0.059v0.112h0.056v0.059h0.059v0.112h0.059v0.059h0.056v0.118h0.059v0.059h0.056v0.112h0.059v0.059h0.056
								v0.112h0.059v0.059h0.056v0.118h0.059v0.053h0.059v0.118h0.056v0.059h0.059v0.059h0.056v0.112h0.059v0.059h0.056v0.112h0.059
								v0.059h0.056v0.118h0.059v0.059h0.056v0.053h0.059v0.118h0.056v0.059h0.059v0.112h0.059v0.059h0.056v0.059h0.059v0.112h0.056
								v0.059h0.059v0.118h0.056v0.053h0.059v0.118h0.056v0.059h0.059v0.053h0.056v0.118h0.059v0.059h0.059v0.112h0.056v0.059h0.059
								v0.118h0.056v0.053h0.059v0.059h0.056v0.118h0.059v0.053h0.056v0.118h0.059v0.059h0.059v0.059h0.056v0.112h0.059v0.059h0.056
								v0.059h0.059v0.112h0.056v0.059h0.059v0.059h0.056v0.112h0.059v0.059h0.056v0.059h0.059v0.112h0.059v0.059h0.056v0.059h0.059
								v0.118h0.056v0.053h0.059v0.059h0.056v0.118h0.059v0.053h0.056v0.059h0.059v0.118h0.056v0.053h0.059v0.118h0.059v0.059h0.056
								v0.059h0.059v0.112h0.056v0.059h0.059v0.059h0.056v0.112h0.059v0.059h0.056v0.059h0.059v0.112h0.056v0.059h0.059v0.059h0.056
								v0.059h0.059v0.112h0.059v0.059H27.8V3846h0.059v0.112h0.056v0.059h0.059v0.059h0.056v0.059h0.059v0.112h0.056v0.059h0.059
								v0.059h0.059v0.112h0.056v0.059h0.059v0.059h0.056v0.059h0.059v0.112h0.056v0.059h0.059v0.059h0.056v0.053h0.059v0.118h0.056
								v0.059h0.059v0.053h0.059v0.118h0.056v0.059h0.059v0.059h0.056v0.053h0.059v0.118h0.056v0.059h0.059v0.053h0.056v0.059h0.059
								v0.118h0.056v0.059h0.059v0.053h0.059v0.059h0.056v0.118h0.059v0.053h0.056v0.059h0.059v0.059h0.056v0.112h0.059v0.059h0.056
								v0.059h0.059v0.059h0.056v0.059h0.059v0.112h0.059v0.059h0.056v0.059h0.059v0.053h0.056v0.059h0.059v0.118h0.056v0.059h0.059
								v0.053h0.056v0.059h0.059v0.118h0.056v0.053h0.059v0.059h0.059v0.059h0.056v0.059h0.059v0.112h0.056v0.059h0.059v0.059h0.056
								v0.059h0.059v0.053h0.056v0.118h0.059v0.059h0.056v0.053h0.059v0.059h0.059v0.059h0.056v0.059h0.059v0.112h0.056v0.059h0.059
								v0.059h0.056v0.059h0.059v0.053h0.056v0.059h0.059v0.118h0.056v0.053h0.059v0.059h0.059v0.059h0.056v0.059h0.059v0.059h0.056
								v0.112H32.3v0.059h0.056v0.059h0.059v0.053h0.056v0.059h0.059v0.059h0.056v0.059h0.059v0.112h0.059v0.059h0.056v0.059h0.059
								v0.059h0.056v0.053h0.059v0.059h0.056v0.118h0.059v0.059h0.056v0.053h0.059v0.059h0.056v0.059h0.059v0.059h0.059v0.053h0.056
								v0.059h0.059v0.059h0.056v0.112h0.059v0.059h0.056v0.059h0.059v0.059h0.056v0.059h0.059v0.053h0.059v0.059h0.056v0.059h0.059
								v0.059h0.056v0.112h0.059v0.059h0.056v0.059h0.059v0.053h0.056v0.059h0.059v0.059h0.056v0.059h0.059v0.059h0.056v0.053h0.059
								v0.059h0.059v0.118h0.056v0.053h0.059v0.059h0.056v0.059h0.059v0.059h0.056v0.059h0.059v0.053h0.056v0.059h0.059v0.059h0.059
								v0.059h0.056v0.053h0.059v0.059h0.056v0.059h0.059v0.118h0.056v0.053h0.059v0.059h0.056v0.059h0.059v0.059h0.056v0.053h0.059
								v0.059h0.059v0.059h0.056v0.059h0.059v0.053h0.056v0.059h0.059v0.059h0.056v0.059h0.059v0.059h0.056v0.053h0.059v0.059h0.056
								v0.059h0.059v0.112h0.059v0.059h0.056v0.059h0.059v0.059h0.056v0.053h0.059v0.059h0.056v0.059h0.059v0.059h0.056v0.059h0.059
								v0.053h0.056v0.059h0.059v0.059h0.059v0.059h0.056v0.053h0.059v0.059h0.056v0.059h0.059v0.059h0.056v0.059h0.059v0.053h0.056
								v0.059h0.059v0.059h0.056v0.059h0.059v0.053h0.059v0.059h0.056v0.059h0.059v0.059h0.056v0.059h0.059v0.053h0.056v0.059h0.059
								v0.059h0.056v0.059h0.059v0.053h0.056v0.059h0.059v0.059h0.059v0.059h0.056v0.053h0.059v0.059h0.056v0.059h0.059v0.059h0.056
								v0.059h0.059v0.053H38.7v0.059h0.059v0.059h0.056v0.059h0.059v0.053h0.059v0.059h0.056v0.059h0.059v0.059h0.056v0.059h0.059
								v0.053h0.056v0.059h0.059v0.059h0.056v0.059h0.059v0.053h0.115v0.059h0.059v0.059h0.056v0.059h0.059v0.053h0.056v0.059h0.059
								v0.059h0.056v0.059h0.059v0.059h0.056v0.053h0.059v0.059h0.056v0.059h0.059v0.059h0.059v0.053h0.056v0.059h0.059v0.059h0.056
								v0.059h0.059v0.059h0.056v0.053h0.115v0.059h0.059v0.059h0.056v0.059h0.059v0.053h0.059v0.059h0.056v0.059h0.059v0.059h0.056
								v0.053h0.059v0.059h0.056v0.059h0.059v0.059h0.056v0.059h0.059v0.053h0.115v0.059h0.059v0.059h0.056v0.059h0.059v0.053h0.056
								v0.059h0.059v0.059h0.056v0.059h0.059v0.059h0.056v0.053h0.115v0.059h0.059v0.059h0.059v0.059h0.056v0.053h0.059v0.059h0.056
								v0.059h0.059v0.059h0.056v0.053h0.059v0.059h0.115v0.059h0.056v0.059h0.059v0.059h0.059v0.053h0.056v0.059h0.059v0.059h0.115
								v0.059h0.056v0.053h0.059v0.059h0.056v0.059H43.2v0.059h0.059v0.059h0.056v0.053h0.115v0.059h0.059v0.059h0.056v0.059h0.059
								v0.053h0.056v0.059h0.059v0.059h0.115v0.059h0.056v0.059h0.059v0.053h0.059v0.059h0.056v0.059h0.059v0.059h0.115v0.053h0.056
								v0.059h0.059v0.059h0.056v0.059h0.059v0.053h0.115v0.059h0.059v0.059h0.056v0.059h0.059v0.059h0.056v0.053h0.115v0.059h0.059
								v0.059h0.056v0.059h0.059v0.053h0.115v0.059h0.059v0.059h0.056v0.059h0.059v0.053h0.056v0.059h0.115v0.059h0.059v0.059h0.056
								v0.059h0.059v0.053h0.115v0.059h0.059v0.059h0.056v0.059h0.115v0.053h0.059v0.059h0.056v0.059h0.059v0.059h0.115v0.059h0.059
								v0.053h0.056v0.059h0.059v0.059h0.056v0.112h0.059v0.059h0.056v0.059h0.059v0.059h0.056v0.059h0.059v0.053h0.056v0.059h0.059
								v0.059h0.059v0.059h0.056v0.053h0.059v0.059h0.056v0.118h0.059v0.053h0.056v0.059h0.059v0.059h0.056v0.059h0.059v0.059h0.056
								v0.112h0.059v0.059H47.7v0.059h0.056v0.053h0.059v0.059h0.056v0.059h0.059v0.059h0.056v0.112h0.059v0.059h0.056v0.059h0.059
								v0.059h0.056v0.112h0.059v0.059h0.059v0.059h0.056v0.053h0.059v0.118h0.056v0.059h0.059v0.059h0.056v0.053h0.059v0.118h0.056
								v0.059h0.059v0.053h0.056v0.118h0.059v0.059h0.059v0.112h0.056v0.059h0.059v0.059h0.056v0.112h0.059v0.059h0.056v0.118h0.059
								v0.059h0.056v0.112h0.059v0.059h0.056v0.112h0.059v0.059h0.059v0.118h0.056v0.112h0.059v0.059h0.056v0.118h0.059v0.112h0.056
								v0.059h0.059v0.112h0.056v0.118h0.059v0.112h0.056v0.118h0.059v0.118h0.059v0.112h0.056v0.118h0.059v0.112h0.056v0.177h0.059
								v0.112h0.056v0.118h0.059v0.171h0.056v0.171h0.059v0.177h0.056v0.171h0.059v0.171h0.059v0.23h0.056v0.177h0.059v0.283h0.056
								v0.236h0.059v0.342h0.056v0.348h0.059v0.348h0.056v0.46h0.059v0.573h0.056v0.637h0.059v0.69h0.059v0.519h0.115v-0.171h0.056
								v-0.118h0.059v-0.23h0.056v-0.171h0.059v-0.23h0.056v-0.289h0.059v-0.23h0.056v-0.348h0.059v-0.343h0.059v-0.348h0.056
								v-0.401h0.059v-0.407h0.056v-0.46h0.059v-0.519h0.056v-0.519h0.059v-0.578h0.056v-0.573h0.059v-0.637h0.059v-0.69h0.056
								v-0.75h0.059v-0.809h0.056v-0.808h0.059v-0.868h0.056v-0.921h0.059v-1.039h0.056v-1.039h0.059v-1.092h0.056v-1.216h0.059
								v-1.269h0.059v-1.381h0.056v-1.446h0.059v-1.499h0.056v-1.611h0.059v-1.788h0.056v-1.906h0.059v-2.018h0.056v-2.189h0.059
								v-2.367h0.056v-2.597h0.059v-2.768h0.056v-3.116h0.059v-3.399h0.059v-3.806H54.1v-4.267h0.059v-4.963h0.056v-5.825h0.059
								v-6.976h0.056v-8.829h0.059v-11.42h0.056v-12.34h0.059v-7.442h0.056v-3.116h0.059v-2.131h0.059v-2.308h0.056v-2.945h0.059
								v-4.09h0.056v-12.922h-0.056v-4.155h-0.059v-2.998h-0.056v-2.302h-0.059v-2.136H54.56v-1.853h-0.056v-1.723h-0.059v-1.499
								h-0.056v-1.558H54.33v-1.334h-0.056v-1.322h-0.059v-1.216h-0.056v-1.145H54.1v-1.157h-0.056v-1.098h-0.059v-1.039h-0.059
								v-1.039H53.87v-0.98h-0.059v-0.921h-0.056v-0.921h-0.059v-0.873H53.64v-0.862h-0.059v-0.862h-0.056v-0.814h-0.059v-0.802
								H53.41v-0.803h-0.059v-0.755h-0.056v-0.744h-0.059v-0.755h-0.059v-0.696H53.12v-0.685h-0.059v-0.697h-0.056v-0.637h-0.059
								v-0.685H52.89v-0.637h-0.059v-0.637h-0.056v-0.578h-0.059v-0.625H52.66v-0.578h-0.059v-0.578h-0.059v-0.578h-0.056v-0.578
								h-0.059v-0.578h-0.056v-0.519h-0.059v-0.519h-0.056v-0.52h-0.059v-0.566h-0.056v-0.519h-0.059v-0.472h-0.059v-0.46h-0.056
								v-0.519h-0.059v-0.46h-0.056v-0.46h-0.059v-0.46h-0.056v-0.46h-0.059v-0.46h-0.056v-0.401h-0.059v-0.46h-0.056v-0.413h-0.059
								v-0.401h-0.059v-0.401h-0.056v-0.401h-0.059v-0.401h-0.056v-0.413h-0.059v-0.342h-0.056v-0.401h-0.059v-0.342h-0.056v-0.413
								h-0.059v-0.342h-0.056v-0.342h-0.059v-0.354h-0.059v-0.342h-0.056v-0.342h-0.059v-0.295h-0.056v-0.342h-0.059v-0.283h-0.056
								v-0.354h-0.059v-0.283h-0.056v-0.295h-0.059v-0.283h-0.056v-0.283h-0.059v-0.295h-0.059v-0.283h-0.056v-0.295h-0.059v-0.224
								h-0.056v-0.295h-0.059v-0.224h-0.056v-0.236h-0.059v-0.283h-0.056v-0.236h-0.059v-0.224h-0.056v-0.236h-0.059v-0.224h-0.059
								v-0.177h-0.056v-0.236H49.37v-0.224h-0.056v-0.177h-0.059v-0.224h-0.056v-0.177H49.14v-0.177h-0.056v-0.165h-0.059v-0.177
								h-0.056v-0.177H48.91v-0.165h-0.059v-0.177h-0.056v-0.118h-0.059v-0.165h-0.056v-0.118H48.62v-0.177h-0.056v-0.059"/>
						</g>
					</g>
				</g>
				<g id="g68" clip-path="url(#SVGID_6_)">
					<g>
						<defs>
							<rect id="SVGID_9_" x="353.016" y="3736.17" width="139.995" height="39.883"/>
						</defs>
						<clipPath id="SVGID_10_">
							<use xlink:href="#SVGID_9_"  overflow="visible"/>
						</clipPath>
						<g id="g70" clip-path="url(#SVGID_10_)">
							<path id="path76" inkscape:connector-curvature="0" fill="#BFBDBA" d="M669.367,3690.378
								c3.635-2.904,10.906-4.096,17.309-4.096c8.309,0,16.448,1.534,24.397,8.711c8.132,7.354,13.668,18.637,13.668,36.578
								c0,17.256-6.574,31.276-20.065,39.479c-7.619,4.786-17.481,6.663-28.729,6.663c-3.293,0-6.58-0.171-8.481-1.021
								c-0.519-0.342-1.558-1.711-1.558-2.396c-0.348-3.075-0.348-26.495-0.348-40.329c0-14.188,0-34.017,0.348-36.413
								C666.086,3695.512,667.119,3691.924,669.367,3690.378L669.367,3690.378z M634.825,3785.403
								c2.945,0,14.128-0.508,19.316-0.508c9.69,0,16.442,0.508,34.607,0.508c15.232,0,28.039-4.102,37.21-11.963
								c11.077-9.566,16.961-22.898,16.961-39.131c0-23.075-10.558-36.401-21.11-43.932c-10.558-7.861-24.232-12.299-43.79-12.299
								c-10.381,0-28.21,0.342-43.088,0.508h-0.201c-0.696,1.369,1.275,6.704,2.49,6.834c4.019,0.46,5.111,0.614,6.976,1.381
								c3.146,1.298,3.883,2.892,4.237,8.534c0.519,10.599,0.342,23.24,0.342,37.605c0,10.257,0.177,30.249-0.171,36.57
								c-0.525,5.3-2.768,6.663-7.265,7.69c-2.254,0.513-5.37,1.027-9.69,1.54C631.296,3779.766,633.969,3784.382,634.825,3785.403"
								/>
							<path id="path78" inkscape:connector-curvature="0" fill="#BFBDBA" d="M788.751,3777.028
								c-0.696-0.171-1.558-1.877-1.558-2.732c-0.177-6.149-0.348-22.219-0.348-33.329c0-0.342,0.513-0.85,0.867-0.85
								c2.249-0.177,7.784-0.342,12.452-0.342c6.58,0,10.387,0.85,12.47,1.877c5.536,2.738,8.127,8.72,8.127,15.211
								c0,14.872-10.387,20.508-25.778,20.508C793.939,3777.37,790.994,3777.37,788.751,3777.028L788.751,3777.028z
								 M828.026,3708.673c0,15.037-11.066,23.583-31.32,23.583c-0.862,0-7.265,0.165-8.823-0.177
								c-0.525-0.165-1.039-0.508-1.039-0.85c0-10.764-0.177-28.033,0.348-34.867c0.342-2.904,2.42-7.011,5.016-8.203
								c2.774-1.534,9-1.877,13.32-1.877C817.474,3686.282,828.026,3692.951,828.026,3708.673z M757.496,3785.403
								c1.552,0,6.161-0.508,17.929-0.508c11.071,0,20.071,0.336,30.801,0.336c13.32,0,31.668-4.78,31.668-24.61
								c0-9.738-6.923-17.602-15.917-21.367c-0.525-0.165-0.525-0.508,0-0.685c12.801-3.246,24.049-11.107,24.049-26.144
								c0-14.695-9.171-23.925-22.491-29.732c-8.138-3.588-18.171-4.792-28.393-4.792c-7.784,0-28.646,0.862-40.243,0.685
								c-1.21,0.519,1.104,5.984,2.142,6.834c2.774,0.177,4.91,0.378,7.849,1.228c4.155,1.027,4.645,2.373,5.164,8.522
								c0.348,5.3,0.348,24.268,0.348,37.77c0,18.458,0.177,30.934,0,37.083c-0.177,4.786-1.906,6.326-5.193,7.182
								c-2.597,0.508-6.923,1.021-10.381,1.534C753.961,3779.595,756.629,3784.724,757.496,3785.403"/>
							<path id="path80" inkscape:connector-curvature="0" fill="#414043" d="M138.399,3678.149
								c-0.289,0.46-0.596,1.818-0.531,3.458c0.047,1.239,0.295,2.03,0.528,2.302c3.264,0.519,4.81,0.862,6.642,1.357
								c3.06,0.755,4.214,2.408,4.394,6.326c0.502,9.219,0.531,26.498,0.348,38.656v0.354c0.015,1.31,0.035,3.093-1.602,4.344
								c-2.399,1.582-5.391,2.892-9.18,4.025c-1.449,0.425-2.249,1.192-2.204,2.077c0.044,0.862,0.953,1.948,2.842,2.313
								c5.01,0.519,18.15,3.647,23.305,6.02c0.307-0.366,0.788-1.169,0.693-2.455c-0.038-0.531-0.086-1.098-0.133-1.688
								c-0.148-1.711-0.31-3.659-0.31-5.606c0-0.567,0.62-1.11,1.275-1.11c0.333,0,0.643,0.13,0.894,0.378
								c9.826,7.696,18.617,10.434,23.14,10.434c7.433,0,13.22-3.541,17.69-10.835c0.263-0.39,0.614-0.59,1.006-0.59
								c0.378,0,0.732,0.189,0.938,0.496c9.035,6.846,17.988,10.93,23.975,10.93c14.167,0,22.63-10.587,22.63-28.328
								c0-5.099-0.053-11.555-0.097-17.587c-0.044-5.288-0.08-10.257-0.08-13.68c0-0.838,1.112-3.151,2.791-3.612
								c2.071-1.003,5.067-1.522,8.844-2.172l0.148-0.023c0.286-1.015-0.316-4.969-0.891-5.784
								c-0.935,0.012-2.237,0.083-3.854,0.165c-2.942,0.142-6.973,0.354-11.667,0.354c-9.413,0-14.332-0.189-19.03-0.496
								c-0.354,1.18-0.478,4.957-0.047,5.748c2.741,0.52,4.096,0.862,5.742,1.346c2.995,0.991,3.857,2.349,4.034,6.326
								c0.068,2.821,0.611,27.702-0.354,33.604c-0.885,6.126-5.506,13.29-15.61,13.29c-3.745,0-9.8-1.558-15.571-5.925
								c-0.357-0.354-0.564-1.027-0.564-1.476l0.009-0.106c0.682-3.199,0.682-6.917,0.682-12.535c0-3.21-0.021-6.61-0.038-9.986
								c-0.041-6.858-0.077-13.338,0.038-18.224c0-3.34,2.018-4.131,3.641-4.781c0.882-0.189,1.585-0.366,2.284-0.531
								c1.36-0.331,2.768-0.661,4.851-0.991c0.283-0.661,0.31-2.632-0.083-4.308c-0.218-0.921-0.469-1.334-0.602-1.464
								c-5.235,0.177-10.605,0.33-18.354,0.33c-2.349,0-6.185-0.094-9.569-0.189c-2.741-0.071-5.341-0.142-6.816-0.154
								c-0.212,0.342-0.51,1.428-0.51,2.986c0,1.44,0.263,2.467,0.537,2.785c0.729,0.13,1.422,0.248,2.083,0.366
								c1.818,0.331,3.385,0.602,4.892,0.98c2.564,0.779,3.526,2.195,3.715,5.453c0.502,7.613,0.891,29.52-0.186,35.008
								c-1.832,8.805-6.852,13.267-14.913,13.267c-4.727,0-10.691-2.266-15.568-5.925c-0.817-0.602-1.434-2.113-1.434-3.517
								c0-2.608-0.009-5.713-0.021-9.041c-0.032-11.012-0.071-24.704,0.198-30.629c0.165-1.83,0.797-3.99,4.237-4.792
								c0.749-0.212,2.051-0.425,3.556-0.673c0.868-0.153,1.815-0.307,2.791-0.484c0.348-0.933,0.136-4.627-0.466-5.784
								c-1.502,0.012-3.352,0.094-5.477,0.189c-3.243,0.142-7.274,0.331-11.871,0.331c-5.409,0-9.174-0.189-12.199-0.331
								C141.913,3678.244,140.152,3678.161,138.399,3678.149L138.399,3678.149"/>
							<path id="path82" inkscape:connector-curvature="0" fill="#414043" d="M310.08,3742.076c-3.151,0-6.093-0.826-8.28-2.325
								c-6.011-3.647-9.068-10.942-9.068-21.647c0-20.054,10.05-34.052,24.442-34.052c4.243,0,7.705,1.216,10.582,3.73
								c4.42,3.6,6.766,10.965,6.766,21.269C334.521,3728.797,324.698,3742.076,310.08,3742.076L310.08,3742.076L310.08,3742.076z
								 M312.851,3676.615c-26,0-35.265,19.051-35.265,36.873c0,12.452,5.099,22.19,15.155,28.93
								c7.15,4.391,15.686,6.917,23.394,6.917c19.841,0,33.704-14.246,33.704-34.654c0-13.869-5.539-24.822-16.014-31.668
								C328.8,3679.944,320.083,3676.615,312.851,3676.615L312.851,3676.615"/>
							<path id="path84" inkscape:connector-curvature="0" fill="#414043" d="M579.32,3742.076c-3.157,0-6.096-0.826-8.286-2.325
								c-6.008-3.647-9.065-10.942-9.065-21.647c0-20.054,10.045-34.052,24.439-34.052c4.243,0,7.708,1.216,10.582,3.73
								c4.42,3.6,6.769,10.953,6.769,21.269C603.759,3728.797,593.933,3742.076,579.32,3742.076L579.32,3742.076z M582.082,3676.615
								c-26.003,0-35.262,19.051-35.262,36.873c0,12.452,5.099,22.19,15.161,28.942c7.147,4.379,15.681,6.905,23.394,6.905
								c19.841,0,33.698-14.246,33.698-34.654c0-13.869-5.536-24.822-16.011-31.656
								C598.04,3679.944,589.324,3676.615,582.082,3676.615L582.082,3676.615"/>
							<path id="path86" inkscape:connector-curvature="0" fill="#414043" d="M492.313,3742.749c-8.014,0-13.196-6.315-13.196-16.1
								c0-9.879,4.456-21.399,17.003-21.399c2.16,0,6.061,0.956,7.997,3.081c2.915,2.679,4.822,8.203,4.822,14.046
								C508.938,3735.135,502.723,3742.749,492.313,3742.749L492.313,3742.749L492.313,3742.749z M491.28,3675.246
								c-3.016,0-5.205-0.873-6.509-1.605c-6.344-4.06-9.289-8.121-9.289-12.795c0-4.403,1.717-7.896,5.394-11.012
								c4.45-3.765,10.458-5.606,18.36-5.606c15.539,0,22.503,8.345,22.503,16.619c0,5.76-2.892,9.62-8.841,11.803
								C508.312,3674.325,500.652,3675.246,491.28,3675.246L491.28,3675.246L491.28,3675.246z M492.313,3635.599
								c-9.336,0-16.058,1.959-21.806,6.374c-5.589,4.32-8.091,10.706-8.091,15.12c0,1.275,0.301,4.556,3.063,7.684
								c1.629,1.853,5.388,5.3,14.093,11.284c0.271,0.094,0.454,0.366,0.454,0.685c0,0.354-0.23,0.637-0.549,0.708
								c-7.17,2.75-9.336,7.247-9.986,9.69c-0.006,0.083-0.035,0.224-0.071,0.378c-0.207,0.956-0.401,1.865,0.897,2.786
								c1.003,0.72,2.614,1.676,4.326,2.679c2.52,1.487,5.382,3.175,6.964,4.532c0.248,0.236,0.348,0.602,0.289,0.956
								c-0.059,0.366-0.271,0.661-0.578,0.814c-10.617,3.564-15.958,11.437-15.958,23.429c0,7.743,3.57,14.742,9.803,19.204
								c4.267,3.364,14.984,7.424,21.924,7.424l0.401-0.012c7.141-0.165,11.166-1.664,16.743-3.718
								c3.022-1.121,5.89-1.57,9.891-1.57c5.913,0,8.492,1.865,10.711,4.013c0.124-0.26,0.425-1.11,0.561-3.057
								c0.142-1.983-0.401-4.922-1.918-7.023c-1.21-1.664-4.013-2.88-6.657-2.88c-0.266,0-0.525,0.012-0.773,0.035
								c-2.727,0.271-4.007,0.661-4.013,0.673l-0.673-0.236c-0.207-0.307-0.071-0.649,0.1-1.074c0.047-0.106,0.083-0.201,0.1-0.271
								c0.348-1.381,0.962-5.418,0.962-6.551c0-12.582-4.963-18.071-10.334-22.119c-5.123-3.86-11.113-6.185-17.864-6.893l0,0
								c-0.142,0-0.779-0.059-2.066-0.177c-0.832-0.071-1.871-0.165-2.024-0.165l-0.153-0.024c-1.169-0.331-4.214-1.771-4.214-4.462
								c0-2.243,1.381-5.016,7.955-5.512c1.334-0.094,2.768-0.2,4.267-0.295c8.687-0.614,19.534-1.357,24.633-3.093
								c7.023-2.561,11.396-8.841,11.396-16.395c0-11.284-8.032-21.895-21.488-28.387
								C506.105,3637.086,499.477,3635.599,492.313,3635.599L492.313,3635.599"/>
							<path id="path88" inkscape:connector-curvature="0" fill="#414043" d="M450.063,3684.429
								c-3.807,0.52-6.574,1.027-9.862,2.573c-0.519,0.342-1.216,1.877-1.216,2.384c-0.342,5.3-0.342,20.679-0.342,30.771
								c0,8.203-1.381,15.38-4.845,20.502c-4.155,5.819-10.039,9.23-17.652,9.23c-6.746,0-15.746-4.615-23.187-10.942
								c-0.174-0.165-1.316-1.251-1.292,0.437c0.027,1.676,0.286,5.099,0.443,7.247c0.156,2.16-1.133,3.175-1.133,3.175
								c-4.845-2.396-18.493-5.63-23.53-6.149c-3.686-0.708-4.612-4.249-0.69-5.477l0,0c0,0,0.035-0.012,0.059-0.012
								c4.105-1.239,6.869-2.55,8.935-3.919c1.555-1.192,1.381-2.904,1.381-4.273c0.174-11.449,0.174-29.048-0.345-38.62
								c-0.174-3.765-1.213-5.123-3.981-5.807l0.251,0.083c-2.074-0.508-3.807-0.862-6.403-1.204c-0.865-0.85-0.865-5.807,0-6.834
								c1.732,0,10.558,0.519,17.826,0.519c10.036,0,15.226-0.519,17.823-0.519c1.039,1.204,1.387,5.819,0.69,6.834
								c-2.939,0.177-5.016,0.52-7.094,1.027c-2.768,0.685-3.461,2.054-3.632,5.135c-0.345,8.026-0.345,25.117-0.345,36.743
								c0,3.246,0.865,4.78,1.903,5.642c3.461,3.069,9.168,5.123,14.19,5.123c4.845,0,8.132-1.534,10.552-3.588
								c3.293-2.739,4.503-6.669,4.851-9.573c0.69-6.492,0.513-19.487,0.513-30.759c0-6.149-0.513-7.696-2.768-8.38
								c-1.039-0.507-3.807-1.027-7.094-1.369c-1.039-1.015-0.69-5.807,0-6.834c4.497,0,9.69,0.519,17.304,0.519
								c9.519,0,15.58-0.519,18-0.519C450.411,3678.799,450.754,3683.237,450.063,3684.429"/>
						</g>
					</g>
				</g>
			</g>
		</g>
	</g>
</g>
</svg>
