<?xml version="1.0" encoding="utf-8"?>
<!-- Generator: Adobe Illustrator 16.0.4, SVG Export Plug-In . SVG Version: 6.00 Build 0)  -->
<!DOCTYPE svg PUBLIC "-//W3C//DTD SVG 1.1//EN" "http://www.w3.org/Graphics/SVG/1.1/DTD/svg11.dtd">
<svg version="1.1" id="Layer_1" xmlns="http://www.w3.org/2000/svg" xmlns:xlink="http://www.w3.org/1999/xlink" x="0px" y="0px"
	 width="140px" height="140px" viewBox="0 0 140 140" enable-background="new 0 0 140 140" xml:space="preserve">
<g id="layer1" transform="translate(-115.94417,-501.42131)">
	<path id="path22" fill="#404137" d="M186.659,552.818c-0.096,0.001-0.192,0.024-0.278,0.074c-0.171,0.1-0.277,0.285-0.277,0.482
		v14.188c0,0.139-0.065,0.264-0.188,0.334c-0.12,0.07-0.267,0.07-0.389,0l-2.318-1.335c-0.345-0.2-0.767-0.2-1.113,0l-9.255,5.34
		c-0.346,0.2-0.557,0.583-0.557,0.984v10.683c0,0.399,0.211,0.764,0.557,0.965l9.255,5.341c0.346,0.2,0.767,0.2,1.113,0l9.255-5.341
		c0.346-0.201,0.555-0.565,0.555-0.965v-26.634c0-0.405-0.221-0.786-0.574-0.983l-5.507-3.079
		C186.849,552.825,186.753,552.817,186.659,552.818L186.659,552.818z M127.122,566.153c-0.176,0.007-0.342,0.038-0.5,0.129
		l-9.255,5.342c-0.345,0.199-0.556,0.562-0.556,0.965l0.019,14.336c0,0.2,0.103,0.385,0.278,0.483c0.172,0.103,0.385,0.103,0.557,0
		l5.49-3.154c0.347-0.206,0.574-0.565,0.574-0.965v-6.694c0-0.398,0.21-0.766,0.556-0.964l2.338-1.354
		c0.174-0.101,0.361-0.147,0.556-0.147c0.19,0,0.387,0.047,0.556,0.147l2.337,1.354c0.346,0.198,0.557,0.565,0.557,0.964v6.694
		c0,0.399,0.229,0.761,0.575,0.965l5.489,3.154c0.173,0.103,0.386,0.103,0.557,0c0.17-0.099,0.278-0.283,0.278-0.483l0.018-14.336
		c0-0.402-0.209-0.766-0.556-0.965l-9.255-5.342c-0.156-0.092-0.323-0.123-0.5-0.129H127.122L127.122,566.153z M210.288,566.283
		c-0.193,0-0.385,0.049-0.559,0.148l-9.254,5.342c-0.346,0.199-0.557,0.564-0.557,0.963v10.684c0,0.402,0.227,0.766,0.576,0.964
		l9.18,5.231c0.34,0.193,0.754,0.208,1.096,0.018l5.562-3.098c0.178-0.098,0.297-0.28,0.297-0.482
		c0.002-0.201-0.104-0.381-0.277-0.481l-9.311-5.342c-0.174-0.099-0.297-0.302-0.297-0.501v-3.337c0-0.2,0.123-0.384,0.297-0.483
		l2.893-1.669c0.174-0.1,0.385-0.1,0.557,0l2.893,1.669c0.174,0.1,0.279,0.283,0.279,0.483v2.632c0,0.201,0.105,0.384,0.277,0.482
		c0.174,0.1,0.385,0.101,0.557,0l5.547-3.227c0.344-0.2,0.555-0.567,0.555-0.965v-2.578c0-0.398-0.211-0.765-0.555-0.964
		l-9.201-5.341C210.669,566.33,210.479,566.283,210.288,566.283L210.288,566.283z M182.615,574.259c0.048,0,0.105,0.011,0.149,0.035
		l3.171,1.837c0.087,0.049,0.149,0.142,0.149,0.241v3.672c0,0.1-0.062,0.191-0.149,0.241l-3.171,1.836
		c-0.087,0.049-0.193,0.049-0.279,0l-3.171-1.836c-0.086-0.05-0.148-0.142-0.148-0.241v-3.672c0-0.1,0.062-0.191,0.148-0.241
		l3.171-1.836C182.528,574.27,182.567,574.259,182.615,574.259L182.615,574.259z"/>
	<path id="path28" fill="#83CD29" d="M238.014,566.023c-0.32,0-0.633,0.067-0.908,0.223l-8.736,5.044
		c-0.566,0.326-0.908,0.941-0.908,1.596v10.071c0,0.653,0.342,1.268,0.908,1.595l2.281,1.315c1.109,0.547,1.518,0.539,2.021,0.539
		c1.643,0,2.58-0.996,2.58-2.727v-9.94c0-0.142-0.123-0.242-0.262-0.242h-1.094c-0.141,0-0.26,0.101-0.26,0.242v9.94
		c0,0.767-0.799,1.538-2.096,0.89l-2.375-1.39c-0.084-0.046-0.146-0.128-0.146-0.223v-10.071c0-0.095,0.062-0.193,0.146-0.241
		l8.719-5.027c0.082-0.047,0.178-0.047,0.26,0l8.717,5.027c0.082,0.05,0.148,0.142,0.148,0.241v10.071
		c0,0.095-0.049,0.193-0.131,0.24l-8.734,5.027c-0.076,0.044-0.178,0.044-0.26,0l-2.246-1.337c-0.066-0.039-0.156-0.036-0.221,0
		c-0.621,0.353-0.736,0.393-1.318,0.594c-0.143,0.05-0.359,0.127,0.076,0.37l2.93,1.726c0.277,0.161,0.59,0.242,0.908,0.242
		c0.324,0,0.631-0.081,0.908-0.242l8.736-5.025c0.564-0.329,0.908-0.941,0.908-1.595v-10.071c0-0.655-0.344-1.269-0.908-1.596
		l-8.736-5.044C238.649,566.09,238.335,566.023,238.014,566.023L238.014,566.023z M154.925,566.227
		c-0.193,0-0.384,0.049-0.556,0.148l-9.255,5.323c-0.346,0.2-0.556,0.584-0.556,0.984v10.683c0,0.4,0.21,0.765,0.556,0.964
		l9.255,5.342c0.346,0.2,0.767,0.2,1.112,0l9.255-5.342c0.346-0.199,0.557-0.563,0.557-0.964v-10.683c0-0.4-0.21-0.784-0.557-0.984
		l-9.255-5.323C155.308,566.276,155.118,566.227,154.925,566.227z M250.977,566.283v0.26h0.725v1.91h0.297v-1.91h0.742v-0.26
		H250.977z M253.001,566.283v2.17h0.277v-1.279c0-0.052,0.002-0.133,0-0.241c-0.004-0.11,0-0.207,0-0.26v-0.056l0.613,1.836h0.295
		l0.631-1.836c0,0.117-0.014,0.229-0.018,0.334c0,0.102,0,0.178,0,0.223v1.279h0.277v-2.17h-0.406l-0.631,1.836l-0.613-1.836
		H253.001L253.001,566.283z M240.352,573.22c-2.488,0-3.971,1.059-3.971,2.818c0,1.91,1.471,2.435,3.857,2.671
		c2.857,0.279,3.08,0.699,3.08,1.261c0,0.977-0.777,1.392-2.615,1.392c-2.309,0-2.816-0.577-2.986-1.725
		c-0.02-0.123-0.115-0.223-0.24-0.223h-1.131c-0.141,0-0.26,0.12-0.26,0.26c0,1.469,0.799,3.209,4.617,3.209
		c2.764,0,4.359-1.085,4.359-2.987c0-1.885-1.289-2.39-3.971-2.745c-2.709-0.357-2.967-0.533-2.967-1.167
		c0-0.524,0.219-1.225,2.227-1.225c1.791,0,2.453,0.387,2.725,1.595c0.025,0.113,0.125,0.204,0.242,0.204h1.131
		c0.068,0,0.137-0.043,0.186-0.093c0.047-0.054,0.08-0.113,0.074-0.185C244.534,574.199,243.147,573.22,240.352,573.22
		L240.352,573.22z M210.268,575.759c-0.037,0-0.076,0-0.111,0.02l-1.779,1.039c-0.066,0.038-0.113,0.108-0.113,0.185v2.041
		c0,0.076,0.047,0.147,0.113,0.186l1.779,1.02c0.066,0.038,0.139,0.038,0.205,0l1.779-1.02c0.066-0.038,0.111-0.109,0.111-0.186
		v-2.041c0-0.076-0.045-0.146-0.111-0.185l-1.779-1.039C210.329,575.759,210.305,575.759,210.268,575.759z"/>
</g>
</svg>
